<?xml version="1.0" encoding="UTF-8"?>
<svg width="658px" height="182px" viewBox="0 0 658 182" version="1.1" xmlns="http://www.w3.org/2000/svg" xmlns:xlink="http://www.w3.org/1999/xlink">
    <!-- Generator: Sketch 61.2 (89653) - https://sketch.com -->
    <title>piano</title>
    <desc>Created with Sketch.</desc>
    <g id="Page-1" stroke="none" stroke-width="1" fill="none" fill-rule="evenodd">
        <g id="u" transform="translate(-102.000000, -163.000000)">
            <g id="piano" transform="translate(102.000000, 163.000000)">
                <rect id="1" stroke="#000000" stroke-width="4" fill="#FFFFFF" x="2" y="2" width="43" height="178" rx="4"></rect>
                <rect id="2" stroke="#000000" stroke-width="4" fill="#FFFFFF" x="49" y="2" width="43" height="178" rx="4"></rect>
                <rect id="3" stroke="#000000" stroke-width="4" fill="#FFFFFF" x="96" y="2" width="43" height="178" rx="4"></rect>
                <rect id="4" stroke="#000000" stroke-width="4" fill="#FFFFFF" x="143" y="2" width="43" height="178" rx="4"></rect>
                <rect id="5" stroke="#000000" stroke-width="4" fill="#FFFFFF" x="190" y="2" width="43" height="178" rx="4"></rect>
                <rect id="6" stroke="#000000" stroke-width="4" fill="#FFFFFF" x="237" y="2" width="43" height="178" rx="4"></rect>
                <rect id="7" stroke="#000000" stroke-width="4" fill="#FFFFFF" x="284" y="2" width="43" height="178" rx="4"></rect>
                <rect id="8" stroke="#000000" stroke-width="4" fill="#FFFFFF" x="331" y="2" width="43" height="178" rx="4"></rect>
                <rect id="9" stroke="#000000" stroke-width="4" fill="#FFFFFF" x="378" y="2" width="43" height="178" rx="4"></rect>
                <rect id="10" stroke="#000000" stroke-width="4" fill="#FFFFFF" x="425" y="2" width="43" height="178" rx="4"></rect>
                <rect id="11" stroke="#000000" stroke-width="4" fill="#FFFFFF" x="472" y="2" width="43" height="178" rx="4"></rect>
                <rect id="12" stroke="#000000" stroke-width="4" fill="#FFFFFF" x="519" y="2" width="43" height="178" rx="4"></rect>
                <rect id="13" stroke="#000000" stroke-width="4" fill="#FFFFFF" x="566" y="2" width="43" height="178" rx="4"></rect>
                <rect id="14" stroke="#000000" stroke-width="4" fill="#FFFFFF" x="613" y="2" width="43" height="178" rx="4"></rect>
                <rect id="1#" fill="#000000" x="30" y="0" width="35" height="102" rx="4"></rect>
                <rect id="2#" fill="#000000" x="77" y="0" width="35" height="102" rx="4"></rect>
                <rect id="4#" fill="#000000" x="171" y="0" width="35" height="102" rx="4"></rect>
                <rect id="5#" fill="#000000" x="218" y="0" width="35" height="102" rx="4"></rect>
                <rect id="6#" fill="#000000" x="265" y="0" width="35" height="102" rx="4"></rect>
                <rect id="8#" fill="#000000" x="359" y="0" width="35" height="102" rx="4"></rect>
                <rect id="9#" fill="#000000" x="406" y="0" width="35" height="102" rx="4"></rect>
                <rect id="11#" fill="#000000" x="500" y="0" width="35" height="102" rx="4"></rect>
                <rect id="12#" fill="#000000" x="547" y="0" width="35" height="102" rx="4"></rect>
                <rect id="13#" fill="#000000" x="594" y="0" width="35" height="102" rx="4"></rect>
            </g>
        </g>
    </g>
</svg>